<?xml version="1.0" encoding="UTF-8"?>
<svg version="1.1" xmlns="http://www.w3.org/2000/svg" width="176" height="180">
<path d="M0 0 C10.89 0 21.78 0 33 0 C34.12528591 12.37814496 34.12528591 12.37814496 34.12939453 18.10791016 C34.13254669 19.38517975 34.13569885 20.66244934 34.13894653 21.97842407 C34.13715815 23.33197058 34.13510754 24.68551676 34.1328125 26.0390625 C34.13348766 27.45584123 34.13445944 28.87261985 34.13571167 30.28939819 C34.13717387 33.23249433 34.13507891 36.17555981 34.13037109 39.11865234 C34.12462181 42.89716283 34.12799456 46.67560308 34.13394356 50.4541111 C34.13754463 53.36734556 34.13641361 56.28056312 34.13381577 59.19379807 C34.13314794 60.58851505 34.1339699 61.98323356 34.13629532 63.37794876 C34.13881996 65.31397728 34.13429332 67.25001119 34.12939453 69.18603516 C34.12859894 70.28758942 34.12780334 71.38914368 34.12698364 72.52407837 C34 75 34 75 33 76 C31.00041636 76.04080783 28.99954746 76.04254356 27 76 C22.98601266 69.70928636 20.7847416 63.05495403 18.4375 56 C17.56459877 53.41030359 16.68662503 50.82233588 15.80859375 48.234375 C15.58279633 47.56670105 15.3569989 46.8990271 15.12435913 46.21112061 C13.4563352 41.29455434 11.72961256 36.40105917 9.97265625 31.515625 C9.72341904 30.82126343 9.47418182 30.12690186 9.21739197 29.41149902 C8.24243419 26.6974322 7.26679965 23.98366789 6.28121948 21.2734375 C5.59939058 19.39755509 4.92458977 17.51912283 4.25 15.640625 C3.66992188 14.04009277 3.66992188 14.04009277 3.078125 12.40722656 C1.79262845 8.34463828 0.92436624 4.15964806 0 0 Z " fill="#F30A97" transform="translate(49,99)"/>
<path d="M0 0 C0 10.89 0 21.78 0 33 C-24.75 33 -49.5 33 -75 33 C-75 30.69 -75 28.38 -75 26 C-60.71513094 20.27483779 -46.2407273 15.18454306 -31.6875 10.1875 C-28.36434977 9.04360701 -25.04155361 7.89870063 -21.7191925 6.7525177 C-19.67185094 6.04648887 -17.62401368 5.34189528 -15.5756073 4.63896179 C-14.65306656 4.32135391 -13.73052582 4.00374603 -12.7800293 3.67651367 C-11.97494431 3.40006516 -11.16985931 3.12361664 -10.34037781 2.83879089 C-8.67120658 2.24056029 -7.02174379 1.58611424 -5.38874817 0.8952179 C-3 0 -3 0 0 0 Z " fill="#0C98EB" transform="translate(82,54)"/>
<path d="M0 0 C2.96809455 1.98173038 3.81638667 4.65408993 4.953125 7.94140625 C5.31809082 8.98047119 5.68305664 10.01953613 6.05908203 11.09008789 C6.64858643 12.80893188 6.64858643 12.80893188 7.25 14.5625 C7.89483155 16.40901782 8.53971631 18.25551743 9.1859436 20.10154724 C9.6591473 21.45433788 10.13125739 22.80751145 10.60238647 24.161026 C12.69128858 30.15352642 14.83707544 36.12478508 16.9921875 42.09375 C17.68205891 44.00834874 18.37183749 45.92298093 19.06152344 47.83764648 C20.09209998 50.69858324 21.12376751 53.55909705 22.15930176 56.41824341 C23.13409051 59.11188539 24.10284157 61.80762884 25.0703125 64.50390625 C25.36670624 65.31835205 25.66309998 66.13279785 25.96847534 66.97192383 C28 72.65827181 28 72.65827181 28 76 C17.11 76 6.22 76 -5 76 C-5 51.25 -5 26.5 -5 1 C-3.35 0.67 -1.7 0.34 0 0 Z " fill="#854BC1" transform="translate(99,11)"/>
<path d="M0 0 C24.75 0 49.5 0 75 0 C75 2.31 75 4.62 75 7 C62.90016248 11.7904745 50.72941766 16.29091374 38.4375 20.5625 C36.10375335 21.37700612 33.7703188 22.19240153 31.43692017 23.00790405 C29.90519977 23.54265886 28.37312072 24.07638756 26.84066772 24.60903931 C22.94238483 25.96501163 19.05097712 27.33726529 15.16845703 28.73779297 C14.39035172 29.01711166 13.6122464 29.29643036 12.81056213 29.58421326 C11.32894186 30.11693524 9.84866682 30.65341842 8.36997986 31.19422913 C5.4397811 32.24510743 3.13913339 33 0 33 C0 22.11 0 11.22 0 0 Z " fill="#BF28AD" transform="translate(94,99)"/>
<path d="M0 0 C2.24312483 0.18199796 4.44903989 0.51986035 6.67578125 0.84375 C9.04057814 1.00272794 10.75071455 0.70000646 13 0 C13.495 0.99 13.495 0.99 14 2 C13.34 2.33 12.68 2.66 12 3 C12.66 3.66 13.32 4.32 14 5 C16.58535497 4.87422571 16.58535497 4.87422571 19.4375 4.25 C20.40558594 4.06953125 21.37367187 3.8890625 22.37109375 3.703125 C25.20314233 3.09631983 25.20314233 3.09631983 28 1 C29.32 1 30.64 1 32 1 C32 1.99 32 2.98 32 4 C30.68 4 29.36 4 28 4 C28 5.32 28 6.64 28 8 C28.71285156 7.9278125 29.42570312 7.855625 30.16015625 7.78125 C45.01292597 6.34195065 45.01292597 6.34195065 49 9 C48 10 48 10 45.48802185 10.12025452 C44.37105423 10.11803391 43.25408661 10.11581329 42.10327148 10.11352539 C40.84203964 10.11344986 39.5808078 10.11337433 38.28135681 10.11329651 C36.89460206 10.1081891 35.50784771 10.10297309 34.12109375 10.09765625 C32.71004791 10.09579201 31.29900143 10.09436814 29.88795471 10.09336853 C26.16759465 10.08954379 22.4472734 10.0797139 18.72692871 10.06866455 C14.93319219 10.05844948 11.13944942 10.05387071 7.34570312 10.04882812 C-0.10288231 10.03809158 -7.55143572 10.0210157 -15 10 C-15 10.66 -15 11.32 -15 12 C5.46 12 25.92 12 47 12 C47 12.33 47 12.66 47 13 C24.23 13 1.46 13 -22 13 C-22.33 11.68 -22.66 10.36 -23 9 C-22.34 8.67 -21.68 8.34 -21 8 C-20.67 7.34 -20.34 6.68 -20 6 C-18.9171875 6.0309375 -18.9171875 6.0309375 -17.8125 6.0625 C-14.28527443 5.98411721 -11.24106494 5.71067298 -8.14453125 3.9375 C-5.54395985 2.80063819 -4.0348247 2.96546696 -1.25 3.375 C-0.45078125 3.48585938 0.3484375 3.59671875 1.171875 3.7109375 C1.77515625 3.80632812 2.3784375 3.90171875 3 4 C3 3.34 3 2.68 3 2 C1.68 1.67 0.36 1.34 -1 1 C-0.67 0.67 -0.34 0.34 0 0 Z " fill="#0798EC" transform="translate(32,72)"/>
<path d="M0 0 C0 10.89 0 21.78 0 33 C-24.75 33 -49.5 33 -75 33 C-75 30.69 -75 28.38 -75 26 C-73.68 25.67 -72.36 25.34 -71 25 C-70.67 25.66 -70.34 26.32 -70 27 C-70.99 27 -71.98 27 -73 27 C-72.67 27.99 -72.34 28.98 -72 30 C-69.69 30 -67.38 30 -65 30 C-65 29.34 -65 28.68 -65 28 C-44.21 27.67 -23.42 27.34 -2 27 C-1.67 18.75 -1.34 10.5 -1 2 C-2.32 1.67 -3.64 1.34 -5 1 C-3 0 -3 0 0 0 Z " fill="#3197DB" transform="translate(82,54)"/>
<path d="M0 0 C10.89 0 21.78 0 33 0 C34.12528591 12.37814496 34.12528591 12.37814496 34.12939453 18.10791016 C34.13254669 19.38517975 34.13569885 20.66244934 34.13894653 21.97842407 C34.13715815 23.33197058 34.13510754 24.68551676 34.1328125 26.0390625 C34.13348766 27.45584123 34.13445944 28.87261985 34.13571167 30.28939819 C34.13717387 33.23249433 34.13507891 36.17555981 34.13037109 39.11865234 C34.12462181 42.89716283 34.12799456 46.67560308 34.13394356 50.4541111 C34.13754463 53.36734556 34.13641361 56.28056312 34.13381577 59.19379807 C34.13314794 60.58851505 34.1339699 61.98323356 34.13629532 63.37794876 C34.13881996 65.31397728 34.13429332 67.25001119 34.12939453 69.18603516 C34.12859894 70.28758942 34.12780334 71.38914368 34.12698364 72.52407837 C34 75 34 75 33 76 C31.00041636 76.04080783 28.99954746 76.04254356 27 76 C23.77939683 70.75160965 21.59864924 65.59361422 19.6875 59.75 C19.27274414 58.54730469 19.27274414 58.54730469 18.84960938 57.3203125 C18.59373047 56.54945313 18.33785156 55.77859375 18.07421875 54.984375 C17.84307373 54.29053711 17.61192871 53.59669922 17.3737793 52.88183594 C17 51 17 51 18 48 C18 48.66 18 49.32 18 50 C18.66 50 19.32 50 20 50 C20.33 51.98 20.66 53.96 21 56 C22.32 56 23.64 56 25 56 C25 57.65 25 59.3 25 61 C24.01 61.495 24.01 61.495 23 62 C24.175625 62.61875 24.175625 62.61875 25.375 63.25 C28.05891656 65.0392777 28.88098949 66.04988139 30 69 C31.04644 65.56942091 31.12079519 62.43123127 31.11352539 58.85449219 C31.11341209 56.99301544 31.11341209 56.99301544 31.11329651 55.09393311 C31.10819031 53.74491333 31.10297432 52.39589396 31.09765625 51.046875 C31.09579024 49.66253714 31.0943672 48.27819862 31.09336853 46.89385986 C31.08955773 43.25738692 31.07973975 39.62095418 31.06866455 35.98449707 C31.0584195 32.27092034 31.05380944 28.5573369 31.04882812 24.84375 C31.03864736 17.56246455 31.01907206 10.28128935 31 3 C21.43 2.67 11.86 2.34 2 2 C1.67 2.99 1.34 3.98 1 5 C0.67 3.35 0.34 1.7 0 0 Z " fill="#EC21A3" transform="translate(49,99)"/>
<path d="M0 0 C0 0.66 0 1.32 0 2 C-1.98 2.33 -3.96 2.66 -6 3 C-6 3.66 -6 4.32 -6 5 C-6.89203125 5.24234375 -7.7840625 5.4846875 -8.703125 5.734375 C-9.87359375 6.06953125 -11.0440625 6.4046875 -12.25 6.75 C-13.99023438 7.23726562 -13.99023438 7.23726562 -15.765625 7.734375 C-19.13152102 9.05146475 -20.53709391 10.45216612 -23 13 C-26.75 13.25 -26.75 13.25 -30 13 C-29.34 13.66 -28.68 14.32 -28 15 C-28 15.99 -28 16.98 -28 18 C-23.23498002 16.09399201 -19.22090859 13.97382196 -15 11 C-14.01 10.34 -13.02 9.68 -12 9 C-11.375 10.8125 -11.375 10.8125 -11 13 C-13 16 -13 16 -16 17 C-16.66515625 17.73089844 -16.66515625 17.73089844 -17.34375 18.4765625 C-19.59197448 20.54450483 -21.51830577 20.82194381 -24.5 21.375 C-25.93859375 21.66503906 -25.93859375 21.66503906 -27.40625 21.9609375 C-30 22 -30 22 -31.84375 20.5390625 C-32.2253125 20.03117187 -32.606875 19.52328125 -33 19 C-32.34 18.34 -31.68 17.68 -31 17 C-31.63808594 17.0721875 -32.27617188 17.144375 -32.93359375 17.21875 C-33.75988281 17.3115625 -34.58617188 17.404375 -35.4375 17.5 C-36.26121094 17.5928125 -37.08492187 17.685625 -37.93359375 17.78125 C-40 18 -40 18 -41 18 C-41 18.66 -41 19.32 -41 20 C-41.60328125 19.97679688 -42.2065625 19.95359375 -42.828125 19.9296875 C-43.62734375 19.91164063 -44.4265625 19.89359375 -45.25 19.875 C-46.43335938 19.84019531 -46.43335938 19.84019531 -47.640625 19.8046875 C-50.24749432 20.02048794 -51.68894085 20.82669305 -54 22 C-56.578125 22.4140625 -56.578125 22.4140625 -59.25 22.625 C-60.14203125 22.69976562 -61.0340625 22.77453125 -61.953125 22.8515625 C-62.62859375 22.90054688 -63.3040625 22.94953125 -64 23 C-61.55521777 20.55521777 -59.5614911 19.98543186 -56.296875 18.84521484 C-55.10223633 18.42493011 -53.90759766 18.00464539 -52.67675781 17.57162476 C-51.36791328 17.1178467 -50.05899214 16.66428957 -48.75 16.2109375 C-47.41228946 15.74338667 -46.07472622 15.27541424 -44.73730469 14.80703735 C-41.93418491 13.82673659 -39.12973749 12.85036653 -36.32421875 11.87695312 C-32.7238961 10.62761022 -29.12637095 9.37043627 -25.52972412 8.11055565 C-22.76828434 7.14385379 -20.0057333 6.18036295 -17.24279785 5.2179451 C-15.91561905 4.7554116 -14.58871372 4.29209263 -13.26208496 3.82798386 C-11.41018702 3.18086384 -9.5566931 2.53831657 -7.703125 1.89599609 C-6.64770508 1.52896576 -5.59228516 1.16193542 -4.50488281 0.78378296 C-2 0 -2 0 0 0 Z " fill="#1998E7" transform="translate(76,56)"/>
<path d="M0 0 C24.75 0 49.5 0 75 0 C75 2.31 75 4.62 75 7 C72.8765984 7.83739781 70.7512272 8.66980283 68.625 9.5 C67.44164062 9.9640625 66.25828125 10.428125 65.0390625 10.90625 C62 12 62 12 60 12 C60 11.34 60 10.68 60 10 C59.34 9.67 58.68 9.34 58 9 C61.35304553 7.88231816 64.43948258 7.60326597 67.94140625 7.28125 C70.05951997 7.1044164 70.05951997 7.1044164 72 6 C72.33 4.35 72.66 2.7 73 1 C49.24 1 25.48 1 1 1 C1 11.23 1 21.46 1 32 C1.66 32.33 2.32 32.66 3 33 C2.01 33 1.02 33 0 33 C0 22.11 0 11.22 0 0 Z " fill="#AD4A9E" transform="translate(94,99)"/>
<path d="M0 0 C1.65 0 3.3 0 5 0 C3.68 0.33 2.36 0.66 1 1 C1 25.09 1 49.18 1 74 C10.24 73.67 19.48 73.34 29 73 C29 70.03 29 67.06 29 64 C31.44839588 67.67259383 33 70.54648201 33 75 C22.11 75 11.22 75 0 75 C0 50.25 0 25.5 0 0 Z " fill="#7E54A8" transform="translate(94,12)"/>
<path d="M0 0 C10.89 0 21.78 0 33 0 C34.125 12.375 34.125 12.375 33.5625 16.6875 C33.40974609 17.93080078 33.40974609 17.93080078 33.25390625 19.19921875 C33.17011719 19.79347656 33.08632812 20.38773438 33 21 C32.67 21 32.34 21 32 21 C31.67 15.06 31.34 9.12 31 3 C21.43 2.67 11.86 2.34 2 2 C1.67 2.99 1.34 3.98 1 5 C0.67 3.35 0.34 1.7 0 0 Z " fill="#DD3A96" transform="translate(49,99)"/>
<path d="M0 0 C1.32 0 2.64 0 4 0 C4.84454356 3.37817425 5.10844919 5.67465243 4 9 C7.81684226 7.44499019 10.19195732 4.96404505 13 2 C12.60404157 3.48484412 12.18249294 4.9628831 11.75 6.4375 C11.40195312 7.67306641 11.40195312 7.67306641 11.046875 8.93359375 C10 11 10 11 7.953125 11.84765625 C7.30859375 11.89792969 6.6640625 11.94820312 6 12 C5.67 11.67 5.34 11.34 5 11 C5 13.31 5 15.62 5 18 C1.14008237 12.21012355 -0.43328368 6.93253894 0 0 Z " fill="#EF1497" transform="translate(51,101)"/>
<path d="M0 0 C0 0.66 0 1.32 0 2 C-1.98 2.33 -3.96 2.66 -6 3 C-6 3.66 -6 4.32 -6 5 C-6.89203125 5.24234375 -7.7840625 5.4846875 -8.703125 5.734375 C-9.87359375 6.06953125 -11.0440625 6.4046875 -12.25 6.75 C-13.99023438 7.23726562 -13.99023438 7.23726562 -15.765625 7.734375 C-19.1157812 9.04530569 -20.5815703 10.42396477 -23 13 C-26.52324572 12.82813436 -28.02591724 11.98272184 -31 10 C-26.90793253 8.57191631 -22.81449396 7.14785715 -18.71972656 5.72753906 C-17.32643703 5.24362265 -15.93353072 4.7586014 -14.54101562 4.27246094 C-12.5413586 3.57457494 -10.54036477 2.8806516 -8.5390625 2.1875 C-7.33459473 1.76855469 -6.13012695 1.34960938 -4.88916016 0.91796875 C-2 0 -2 0 0 0 Z " fill="#2F98D9" transform="translate(76,56)"/>
<path d="M0 0 C10.89 0 21.78 0 33 0 C33 2.31 33 4.62 33 7 C30.8765984 7.83739781 28.7512272 8.66980283 26.625 9.5 C25.44164062 9.9640625 24.25828125 10.428125 23.0390625 10.90625 C20 12 20 12 18 12 C18 11.34 18 10.68 18 10 C17.34 9.67 16.68 9.34 16 9 C19.35304553 7.88231816 22.43948258 7.60326597 25.94140625 7.28125 C28.05951997 7.1044164 28.05951997 7.1044164 30 6 C30.33 4.35 30.66 2.7 31 1 C20.77 1 10.54 1 0 1 C0 0.67 0 0.34 0 0 Z " fill="#A54A96" transform="translate(136,99)"/>
<path d="M0 0 C-3.3 1.32 -6.6 2.64 -10 4 C-9.01 4.33 -8.02 4.66 -7 5 C-7 5.66 -7 6.32 -7 7 C-7.60328125 6.97679688 -8.2065625 6.95359375 -8.828125 6.9296875 C-9.62734375 6.91164063 -10.4265625 6.89359375 -11.25 6.875 C-12.43335938 6.84019531 -12.43335938 6.84019531 -13.640625 6.8046875 C-16.24749432 7.02048794 -17.68894085 7.82669305 -20 9 C-22.578125 9.4140625 -22.578125 9.4140625 -25.25 9.625 C-26.14203125 9.69976562 -27.0340625 9.77453125 -27.953125 9.8515625 C-28.62859375 9.90054688 -29.3040625 9.94953125 -30 10 C-26.13323229 6.13323229 -20.09186238 5.06113851 -15 3.3125 C-13.78570313 2.88388672 -12.57140625 2.45527344 -11.3203125 2.01367188 C-10.16273437 1.61341797 -9.00515625 1.21316406 -7.8125 0.80078125 C-6.74644531 0.43122314 -5.68039063 0.06166504 -4.58203125 -0.3190918 C-2 -1 -2 -1 0 0 Z " fill="#3497D8" transform="translate(42,69)"/>
<path d="M0 0 C2.72107452 2.3500189 3.96702492 4.55674975 5 8 C4.67 8.99 4.34 9.98 4 11 C3.01 11 2.02 11 1 11 C1 9.02 1 7.04 1 5 C0.34 4.67 -0.32 4.34 -1 4 C-1.33 5.32 -1.66 6.64 -2 8 C-2.66 8 -3.32 8 -4 8 C-4 6.02 -4 4.04 -4 2 C-2.68 2 -1.36 2 0 2 C0 1.34 0 0.68 0 0 Z " fill="#7B49BE" transform="translate(99,11)"/>
<path d="M0 0 C-2.49551158 2.49551158 -4.66076626 3.07575992 -8 4.1875 C-9.0725 4.55230469 -10.145 4.91710937 -11.25 5.29296875 C-14 6 -14 6 -16 5 C-10.54259658 0.35540135 -7.11807295 -0.72633397 0 0 Z " fill="#B632A5" transform="translate(119,123)"/>
<path d="M0 0 C2.46301423 2.46301423 2.76766521 4.27360036 3.625 7.625 C3.88539062 8.62789062 4.14578125 9.63078125 4.4140625 10.6640625 C4.60742188 11.43492188 4.80078125 12.20578125 5 13 C2.55078125 12.1328125 2.55078125 12.1328125 0 11 C-0.8125 8.875 -0.8125 8.875 -1 7 C-0.34 7 0.32 7 1 7 C0.4740625 5.824375 0.4740625 5.824375 -0.0625 4.625 C-0.371875 3.75875 -0.68125 2.8925 -1 2 C-0.67 1.34 -0.34 0.68 0 0 Z " fill="#7D4FB2" transform="translate(114,51)"/>
<path d="M0 0 C0.33 0 0.66 0 1 0 C1 1.65 1 3.3 1 5 C-8.41002278 9.40774487 -8.41002278 9.40774487 -13 10 C-13 9.34 -13 8.68 -13 8 C-13.66 7.67 -14.32 7.34 -15 7 C-11.64695447 5.88231816 -8.56051742 5.60326597 -5.05859375 5.28125 C-2.94048003 5.1044164 -2.94048003 5.1044164 -1 4 C-0.34786708 1.97536745 -0.34786708 1.97536745 0 0 Z " fill="#AC3498" transform="translate(167,101)"/>
<path d="M0 0 C1.90747183 2.86120775 3.00353706 5.35254993 4.1875 8.5625 C4.55230469 9.53316406 4.91710937 10.50382812 5.29296875 11.50390625 C6 14 6 14 5 16 C0.98587534 11.85207118 -0.43383042 7.65059445 -1 2 C-0.67 1.34 -0.34 0.68 0 0 Z " fill="#7D53AC" transform="translate(108,33)"/>
<path d="M0 0 C0.66 0.33 1.32 0.66 2 1 C2.04241723 3.33294775 2.04092937 5.66702567 2 8 C1 9 1 9 -2.0625 9.0625 C-3.031875 9.041875 -4.00125 9.02125 -5 9 C-5.33 8.34 -5.66 7.68 -6 7 C-4.35 6.67 -2.7 6.34 -1 6 C-0.67 4.02 -0.34 2.04 0 0 Z " fill="#DA4C8E" transform="translate(81,166)"/>
<path d="M0 0 C0.99 0.33 1.98 0.66 3 1 C3.33 2.98 3.66 4.96 4 7 C2.35 7 0.7 7 -1 7 C-1.33 5.68 -1.66 4.36 -2 3 C-1.34 2.67 -0.68 2.34 0 2 C0 1.34 0 0.68 0 0 Z " fill="#159AED" transform="translate(11,78)"/>
<path d="M0 0 C3.25031913 2.36386846 3.82258019 5.25696304 4.765625 8.96484375 C5.02679515 11.23267118 4.67788667 12.83560469 4 15 C3.32532438 13.25307205 2.66055844 11.50231475 2 9.75 C1.62875 8.77546875 1.2575 7.8009375 0.875 6.796875 C0 4 0 4 0 0 Z " fill="#D53D8D" transform="translate(51,104)"/>
<path d="M0 0 C1.32 0 2.64 0 4 0 C4.33 1.65 4.66 3.3 5 5 C4.01 5.33 3.02 5.66 2 6 C0 3 0 3 0 0 Z " fill="#F50D93" transform="translate(51,101)"/>
<path d="M0 0 C2.5654594 2.5654594 2.54046087 4.47686668 3 8 C1.68 8 0.36 8 -1 8 C-0.67 5.36 -0.34 2.72 0 0 Z " fill="#7F4FAD" transform="translate(101,14)"/>
<path d="M0 0 C1.36125 0.12375 1.36125 0.12375 2.75 0.25 C-0.53463659 2.43975773 -3.45696275 3.24806563 -7.25 4.25 C-4.83923194 1.28290085 -3.90322061 0.30024774 0 0 Z " fill="#AB3D9C" transform="translate(110.25,124.75)"/>
</svg>
