<svg width="180" height="48" viewBox="0 0 180 48" fill="none" xmlns="http://www.w3.org/2000/svg">
<path d="M147 36.5201L156.41 9.59009H162.78L172.23 36.5201H166.53L164.76 30.9901H154.12L152.35 36.5201H146.99H147ZM155.61 26.3501H163.25L159.41 14.4501L155.61 26.3501Z" fill="url(#paint0_linear_2560_39115)"/>
<path d="M174.51 36.5201V9.59009H179.96V36.5201H174.51Z" fill="url(#paint1_linear_2560_39115)"/>
<path d="M112.11 40.77H28.4897L35.1497 47.43L112.11 40.77Z" fill="url(#paint2_linear_2560_39115)"/>
<path d="M36.2298 13.83V14.84C34.6798 13.85 33.2798 13.28 31.3798 13.28C25.5198 13.28 21.0698 18.62 21.0698 25.18C21.0698 31.74 25.5198 37.08 31.3798 37.08C33.2898 37.08 34.6798 36.51 36.2298 35.52V36.53H41.3798V13.84H36.2298V13.83ZM31.3798 31.61C28.4898 31.61 26.3798 28.77 26.3798 25.17C26.3798 21.57 28.4998 18.73 31.3798 18.73C34.2598 18.73 36.3098 21.58 36.3098 25.17C36.3098 28.76 34.2698 31.61 31.3798 31.61Z" fill="url(#paint3_linear_2560_39115)"/>
<path d="M77.4899 13.8301V27.1601C77.4899 29.6601 75.7699 31.7701 73.2699 31.7701C70.7699 31.7701 69.0499 29.6601 69.0499 27.1601V13.8301H63.8999V27.1601C63.8999 32.6301 67.6399 37.0801 73.1099 37.0801C75.6399 37.0801 77.4899 35.6801 77.4899 35.6801V36.5201H82.6399V13.8301H77.4899Z" fill="url(#paint4_linear_2560_39115)"/>
<path d="M125.48 36.52V23.19C125.48 20.69 127.2 18.58 129.7 18.58C132.2 18.58 133.92 20.69 133.92 23.19V36.52H139.07V23.19C139.07 17.72 135.33 13.27 129.86 13.27C127.33 13.27 125.48 14.67 125.48 14.67V13.83H120.33V36.52H125.48Z" fill="url(#paint5_linear_2560_39115)"/>
<path d="M6.22984 36.52V27.73H10.0398L16.6398 36.52H23.3798L15.4098 25.91C17.8898 24.13 19.5198 21.23 19.5198 17.94C19.5198 12.55 15.1298 8.17004 9.73984 8.17004H0.839844V36.52H6.22984ZM6.22984 13.56H9.73984C12.1598 13.56 14.1398 15.53 14.1398 17.95C14.1398 20.37 12.1598 22.35 9.73984 22.35H6.22984V13.56Z" fill="url(#paint6_linear_2560_39115)"/>
<path d="M96.5198 31.1501C96.0598 31.4601 95.4698 31.7101 94.7998 31.7101C93.9598 31.7101 92.3698 31.0701 92.3698 28.9301V19.2201H96.7698V13.8301H92.3698V8.18005H87.2198V13.8301H84.4998V19.2201H87.2198V29.0101C87.2198 34.0801 91.0398 37.1001 94.8798 37.1001C96.3098 37.1001 98.2998 36.6301 99.9198 35.6701L96.5298 31.1501H96.5198Z" fill="url(#paint7_linear_2560_39115)"/>
<path d="M54.1898 24.46L63.0198 13.83H55.7998L49.6198 21.73V6.30005H44.3198V36.5201H49.6198V27.2001L57.2198 36.5201H64.4398L54.1898 24.46Z" fill="url(#paint8_linear_2560_39115)"/>
<path d="M108.42 13.25C102.46 13.25 98.1799 18.49 98.1799 25.17C98.1799 32.2 103.55 37.09 108.93 37.09C111.65 37.09 115.13 36.16 118.05 32.01L113.5 29.38C109.98 34.57 104.12 31.93 103.44 26.75H118.27C119.54 18.6 114.27 13.24 108.41 13.24L108.42 13.25ZM112.91 22.24H103.63C104.71 16.93 111.9 16.62 112.91 22.24Z" fill="url(#paint9_linear_2560_39115)"/>
<path d="M143.63 0.550049H144.32L147.15 8.63005H143.63V0.550049Z" fill="#874BC3"/>
<path d="M134.21 8.63011V7.95011L142.29 5.11011V8.63011H134.21Z" fill="#0E98EC"/>
<path d="M142.29 18.0501H141.61L138.78 9.97009H142.29V18.0501Z" fill="#F60497"/>
<path d="M151.72 9.97009V10.6501L143.63 13.4901V9.97009H151.72Z" fill="#C027B0"/>
<defs>
<linearGradient id="paint0_linear_2560_39115" x1="87.7098" y1="-93.3199" x2="165.4" y2="41.2401" gradientUnits="userSpaceOnUse">
<stop stop-color="#00A6FE"/>
<stop offset="0.84" stop-color="#FF00A8"/>
<stop offset="0.99" stop-color="#FF008F"/>
</linearGradient>
<linearGradient id="paint1_linear_2560_39115" x1="95.4598" y1="-118.59" x2="181.01" y2="29.59" gradientUnits="userSpaceOnUse">
<stop stop-color="#00A6FE"/>
<stop offset="0.84" stop-color="#FF00A8"/>
<stop offset="0.99" stop-color="#FF008F"/>
</linearGradient>
<linearGradient id="paint2_linear_2560_39115" x1="41.7797" y1="-8.62998" x2="94.9497" y2="83.47" gradientUnits="userSpaceOnUse">
<stop stop-color="#00A6FE"/>
<stop offset="0.84" stop-color="#FF00A8"/>
<stop offset="0.99" stop-color="#FF008F"/>
</linearGradient>
<linearGradient id="paint3_linear_2560_39115" x1="11.5998" y1="-12.65" x2="87.1298" y2="118.17" gradientUnits="userSpaceOnUse">
<stop stop-color="#00A6FE"/>
<stop offset="0.84" stop-color="#FF00A8"/>
<stop offset="0.99" stop-color="#FF008F"/>
</linearGradient>
<linearGradient id="paint4_linear_2560_39115" x1="39.1099" y1="-37.1699" x2="113.61" y2="91.8501" gradientUnits="userSpaceOnUse">
<stop stop-color="#00A6FE"/>
<stop offset="0.84" stop-color="#FF00A8"/>
<stop offset="0.99" stop-color="#FF008F"/>
</linearGradient>
<linearGradient id="paint5_linear_2560_39115" x1="73.0199" y1="-69.81" x2="147.51" y2="59.21" gradientUnits="userSpaceOnUse">
<stop stop-color="#00A6FE"/>
<stop offset="0.84" stop-color="#FF00A8"/>
<stop offset="0.99" stop-color="#FF008F"/>
</linearGradient>
<linearGradient id="paint6_linear_2560_39115" x1="-4.08016" y1="1.23004" x2="70.7798" y2="130.89" gradientUnits="userSpaceOnUse">
<stop stop-color="#00A6FE"/>
<stop offset="0.84" stop-color="#FF00A8"/>
<stop offset="0.99" stop-color="#FF008F"/>
</linearGradient>
<linearGradient id="paint7_linear_2560_39115" x1="47.6198" y1="-54.2399" x2="127.43" y2="83.98" gradientUnits="userSpaceOnUse">
<stop stop-color="#00A6FE"/>
<stop offset="0.84" stop-color="#FF00A8"/>
<stop offset="0.99" stop-color="#FF008F"/>
</linearGradient>
<linearGradient id="paint8_linear_2560_39115" x1="23.8598" y1="-26.47" x2="100.4" y2="106.11" gradientUnits="userSpaceOnUse">
<stop stop-color="#00A6FE"/>
<stop offset="0.84" stop-color="#FF00A8"/>
<stop offset="0.99" stop-color="#FF008F"/>
</linearGradient>
<linearGradient id="paint9_linear_2560_39115" x1="59.0699" y1="-60.52" x2="135.94" y2="72.63" gradientUnits="userSpaceOnUse">
<stop stop-color="#00A6FE"/>
<stop offset="0.84" stop-color="#FF00A8"/>
<stop offset="0.99" stop-color="#FF008F"/>
</linearGradient>
</defs>
</svg>
